<svg xmlns="http://www.w3.org/2000/svg" viewBox="0 0 1657 1864"><filter id="b"><feGaussianBlur stdDeviation="40" /></filter><path fill="#7a7a76" d="M0 0h1660v1864H0z"/><g filter="url(#b)" transform="translate(3.6 3.6) scale(7.28125)" fill-opacity=".5"><ellipse fill="#e9e5e6" rx="1" ry="1" transform="matrix(-13.61802 47.6381 -205.14961 -58.6449 164.2 18.7)"/><ellipse fill="#111a13" cx="84" cy="223" rx="139" ry="27"/><ellipse fill="#2a2f25" rx="1" ry="1" transform="matrix(27.7208 1.98263 -6.32763 88.47172 58.2 152)"/><ellipse fill="#3d4238" rx="1" ry="1" transform="matrix(-5.86714 37.0422 -76.97823 -12.19264 120.8 101)"/><ellipse fill="#e9dad2" rx="1" ry="1" transform="matrix(-2.75092 59.8943 -32.61128 -1.49782 227 106)"/><ellipse fill="#fff" cx="133" cy="253" rx="209" ry="4"/><ellipse fill="#dfcec0" cx="114" cy="172" rx="27" ry="38"/><path fill="#313328" d="M135.8 218.2l50 3.8 3.2-98.7-44.6 5.8z"/></g></svg>