<svg xmlns="http://www.w3.org/2000/svg" viewBox="0 0 2273 3000"><filter id="b"><feGaussianBlur stdDeviation="40" /></filter><path fill="#807759" d="M0 0h2273v3000H0z"/><g filter="url(#b)" transform="translate(5.9 5.9) scale(11.71875)" fill-opacity=".5"><ellipse fill="#1d150f" rx="1" ry="1" transform="matrix(39.98843 -77.43423 30.8894 15.95184 76.6 127.2)"/><ellipse fill="#ffffe3" rx="1" ry="1" transform="matrix(125.14272 -.56747 .05192 11.44945 91.8 255)"/><ellipse fill="#d8cd98" rx="1" ry="1" transform="matrix(-18.81508 -74.90596 18.93597 -4.75639 151.3 102)"/><ellipse fill="#d0c28f" cx="43" cy="83" rx="30" ry="30"/><path fill="#fff" d="M-16 3h134L48-16z"/><path fill="#160f07" d="M4 192h36v49H4z"/><path fill="#373127" d="M154 242l55 2L93 89z"/><ellipse fill="#08080d" rx="1" ry="1" transform="matrix(-14.36778 -6.38944 12.651 -28.448 91.3 63.2)"/></g></svg>