<svg xmlns="http://www.w3.org/2000/svg" viewBox="0 0 5459 5459"><filter id="b"><feGaussianBlur stdDeviation="40" /></filter><path fill="#b9b9b4" d="M0 0h5459v5459H0z"/><g filter="url(#b)" transform="translate(10.7 10.7) scale(21.32422)" fill-opacity=".5"><ellipse fill="#696354" cx="107" cy="111" rx="61" ry="61"/><ellipse fill="#e5e9eb" cx="17" cy="93" rx="30" ry="255"/><ellipse fill="#777873" rx="1" ry="1" transform="matrix(35.94551 -51.33551 16.43923 11.51088 200.7 172.5)"/><ellipse fill="#e2e5e7" rx="1" ry="1" transform="matrix(252.49677 35.64242 -5.143 36.4338 150.6 8.9)"/><ellipse fill="#d6dbdd" rx="1" ry="1" transform="rotate(-90.1 198 54.2) scale(31.97513 239.32691)"/><path fill="#d5d8d1" d="M91 152h108v23H91z"/><ellipse fill="#736556" rx="1" ry="1" transform="matrix(41.42207 -40.2812 15.82139 16.26949 86 85.2)"/><ellipse fill="#9e9586" rx="1" ry="1" transform="matrix(53.47132 40.1474 -13.64593 18.17467 175.7 85.2)"/></g></svg>