<svg xmlns="http://www.w3.org/2000/svg" viewBox="0 0 683 1024"><filter id="b"><feGaussianBlur stdDeviation="40" /></filter><path fill="#c5ae62" d="M0 0h684v1024H0z"/><g filter="url(#b)" transform="matrix(4 0 0 4 2 2)" fill-opacity=".5"><ellipse fill="#727052" cx="64" cy="191" rx="48" ry="48"/><path fill="#ffff7f" d="M14 234l-30-126L21-15z"/><path fill="#282f39" d="M14 59l48 12 28-42z"/><ellipse fill="#fde96e" rx="1" ry="1" transform="rotate(162.8 72.8 41.2) scale(28.21081 105.75332)"/><ellipse fill="#fc505d" rx="1" ry="1" transform="matrix(-17.41909 -13.36614 22.998 -29.97159 44.8 123.8)"/><ellipse fill="#67554b" rx="1" ry="1" transform="rotate(-133.3 88.1 39.3) scale(15.34154 43.55659)"/><ellipse fill="#ffff56" rx="1" ry="1" transform="rotate(24 -312.1 250.9) scale(12.75275 17.22452)"/><ellipse fill="#ffff85" rx="1" ry="1" transform="matrix(.1493 13.7261 -96.10486 1.04533 68.5 250.8)"/></g></svg>