<svg xmlns="http://www.w3.org/2000/svg" viewBox="0 0 683 1024"><filter id="b"><feGaussianBlur stdDeviation="40" /></filter><path fill="#c5ae62" d="M0 0h684v1024H0z"/><g filter="url(#b)" transform="matrix(4 0 0 4 2 2)" fill-opacity=".5"><ellipse fill="#5e524d" rx="1" ry="1" transform="rotate(-175.7 25 95) scale(25.93476 46.81494)"/><path fill="#2a2b3a" d="M57 74L18 56l69-25z"/><path fill="#675d50" d="M153 237L87 126l1 111z"/><ellipse fill="#f0495e" rx="1" ry="1" transform="matrix(28.96114 -36.53986 14.93026 11.83358 47.5 125.6)"/><ellipse fill="#ffff62" rx="1" ry="1" transform="matrix(32.88876 47.81589 -13.973 9.61092 152.9 83.8)"/><ellipse fill="#ffff8e" cx="3" cy="123" rx="16" ry="170"/><path fill="#7d5552" d="M99.8 147l6.8-48.5 45.6 6.4-6.8 48.6z"/><ellipse fill="#ffff59" rx="1" ry="1" transform="matrix(17.09969 -3.40377 4.92658 24.7499 124.6 169.2)"/></g></svg>