<svg xmlns="http://www.w3.org/2000/svg" viewBox="0 0 696 1024"><filter id="c"><feGaussianBlur stdDeviation="55" /></filter><path fill="#bab9a2" d="M0 0h696v1024H0z"/><g filter='url(#c)' fill-opacity='.5'><ellipse fill="#000215" fill-opacity=".5" rx="1" ry="1" transform="matrix(11.47651 -293.38506 134.81385 5.2736 282.4 486.8)"/><path fill-opacity=".5" d="M242 230l376-20-340 224z"/><path fill="#ffffd7" fill-opacity=".5" d="M-62 666l188 420 156-788z"/><path fill="#051635" fill-opacity=".5" d="M511 915.5l-85.8 19.8L309 432.5l85.7-19.8z"/><ellipse fill="#ffffe4" fill-opacity=".5" rx="1" ry="1" transform="rotate(9.7 -3353.4 4030.9) scale(147.27406 692)"/><ellipse fill="#ffffe0" fill-opacity=".5" rx="1" ry="1" transform="matrix(154.64893 71.45784 -191.53149 414.51211 82.2 132.5)"/><ellipse fill-opacity=".5" rx="1" ry="1" transform="matrix(20.9494 -8.67752 44.01666 106.26561 535.3 188.3)"/><path fill-opacity=".5" d="M295.7 66.8l48.2-19.4 52.4 129.8-48.2 19.4z"/></g></svg>