<svg xmlns="http://www.w3.org/2000/svg" viewBox="0 0 696 1024"><filter id="b"><feGaussianBlur stdDeviation="40" /></filter><path fill="#bab9a2" d="M0 0h696v1024H0z"/><g filter="url(#b)" transform="matrix(4 0 0 4 2 2)" fill-opacity=".5"><ellipse fill="#00000c" cx="71" cy="116" rx="36" ry="64"/><ellipse rx="1" ry="1" transform="matrix(1.87216 10.28257 -54.62611 9.94584 100 67.9)"/><path fill="#fffff8" d="M70 89.2l-20.4 81.5-15.5-3.9 20.3-81.5z"/><ellipse cx="106" cy="181" rx="8" ry="47"/><ellipse fill="#ffffe5" rx="1" ry="1" transform="rotate(-167.9 82.6 55.3) scale(27.56226 102.52433)"/><ellipse fill="#ffd" rx="1" ry="1" transform="matrix(27.28796 -2.7687 17.46333 172.11633 11.4 152.5)"/><path fill="#021432" d="M67 238l-15-84 58-110z"/><path d="M98.9 43.2l-11.2 4.3L75 14.8l11.2-4.3z"/></g></svg>