<svg xmlns="http://www.w3.org/2000/svg" viewBox="0 0 694 1024"><filter id="b"><feGaussianBlur stdDeviation="40" /></filter><path fill="#5b6f7e" d="M0 0h692v1024H0z"/><g filter="url(#b)" transform="matrix(4 0 0 4 2 2)" fill-opacity=".5"><ellipse fill="#fff" rx="1" ry="1" transform="matrix(7.65853 -12.06791 56.31594 35.73918 30.5 21.7)"/><ellipse fill="#171307" cx="137" cy="147" rx="32" ry="76"/><ellipse fill="#8daec8" rx="1" ry="1" transform="matrix(-78.77087 -26.0218 17.56657 -53.17595 140.5 26.4)"/><ellipse fill="#12120f" rx="1" ry="1" transform="matrix(7.74851 -16.6362 96.53958 44.9645 69 77)"/><ellipse fill="#f29d40" cx="125" cy="231" rx="168" ry="12"/><ellipse fill="#2572bb" rx="1" ry="1" transform="matrix(48.07163 -37.69297 53.23418 67.89207 49.8 150)"/><path fill="#fff" d="M169 0h4v256h-4z"/><path fill="#121d24" d="M158 17h11v234h-11z"/></g></svg>