<svg xmlns="http://www.w3.org/2000/svg" viewBox="0 0 717 1024"><filter id="b"><feGaussianBlur stdDeviation="40" /></filter><path fill="#bbb097" d="M0 0h716v1024H0z"/><g filter="url(#b)" transform="matrix(4 0 0 4 2 2)" fill-opacity=".5"><path fill="#ab0100" d="M38.3 25.8l19.6 24-20.2 16.4-19.6-24z"/><ellipse fill="#a50000" cx="134" cy="41" rx="15" ry="15"/><path fill="#b30000" d="M39.7 188L57 206l-18.7 18L21 206z"/><path fill="#ae0000" d="M143.2 207.7L127 222.4l-18.1-20 16.3-14.8z"/><ellipse fill="#e5e6c9" rx="1" ry="1" transform="matrix(24.67213 -27.26854 20.4617 18.5134 85.9 42)"/><ellipse fill="#e0e1c1" rx="1" ry="1" transform="matrix(-18.13706 73.18908 -19.38294 -4.8033 93.3 174.9)"/><ellipse fill="#6a7480" cx="178" cy="152" rx="11" ry="178"/><ellipse fill="#e5e6c4" cx="157" cy="128" rx="11" ry="118"/></g></svg>