<svg xmlns="http://www.w3.org/2000/svg" viewBox="0 0 717 1024"><filter id="b"><feGaussianBlur stdDeviation="40" /></filter><path fill="#bbb097" d="M0 0h716v1024H0z"/><g filter="url(#b)" transform="matrix(4 0 0 4 2 2)" fill-opacity=".5"><ellipse fill="#a50000" rx="1" ry="1" transform="matrix(12.2222 -8.14636 8.51462 12.7747 134.5 42.9)"/><path fill="#ab0c00" d="M124.8 224.5l-22.3-23 18.7-18 22.3 23z"/><path fill="#ae0000" d="M38 26l19 19-17 17-19-19z"/><path fill="#b80000" d="M58.4 204.3l-18.7 18-18-18.6 18.6-18z"/><ellipse fill="#e4e5c8" rx="1" ry="1" transform="matrix(-23.9248 28.45157 -21.3853 -17.9828 86.5 43.4)"/><ellipse fill="#dfe1c1" rx="1" ry="1" transform="matrix(-17.09693 67.47644 -21.41612 -5.42634 96.4 172.5)"/><ellipse fill="#6a7480" cx="178" cy="152" rx="11" ry="178"/><ellipse fill="#e4e5c3" cx="156" cy="124" rx="12" ry="115"/></g></svg>