<svg xmlns="http://www.w3.org/2000/svg" viewBox="0 0 1275 1704"><filter id="b"><feGaussianBlur stdDeviation="40" /></filter><path fill="#cb9777" d="M0 0h1271v1704H0z"/><g filter="url(#b)" transform="translate(3.3 3.3) scale(6.65625)" fill-opacity=".5"><ellipse fill="#1e0000" rx="1" ry="1" transform="matrix(-42.9709 -1.27697 3.02696 -101.85896 105.9 119.6)"/><ellipse fill="#ffe9cc" cx="24" cy="125" rx="36" ry="190"/><ellipse fill="#ffe3c5" rx="1" ry="1" transform="matrix(.72968 -32.04542 147.3109 3.35429 155.4 244)"/><ellipse fill="#ffeed4" rx="1" ry="1" transform="matrix(-189.15677 -17.88058 3.03356 -32.09168 145.8 -.1)"/><ellipse fill="#ffecd3" rx="1" ry="1" transform="matrix(-21.48479 1.29532 -10.51414 -174.3925 189.1 91.1)"/><path fill="#370000" d="M121.3 17.9l-1.1 88.3L173 63.9l-21.9-7.7z"/><ellipse fill="#550e00" rx="1" ry="1" transform="matrix(-9.13885 -38.4969 23.13967 -5.49316 118.4 183.8)"/><path fill="#572e0b" d="M63 37.7l72.5-8 9.7 149.3L55 52z"/></g></svg>