<svg xmlns="http://www.w3.org/2000/svg" viewBox="0 0 1275 1704"><filter id="b"><feGaussianBlur stdDeviation="40" /></filter><path fill="#cb9777" d="M0 0h1271v1704H0z"/><g filter="url(#b)" transform="translate(3.3 3.3) scale(6.65625)" fill-opacity=".5"><ellipse fill="#200000" rx="1" ry="1" transform="matrix(45.37418 3.13206 -6.75796 97.9027 105.3 119)"/><ellipse fill="#ffe8c9" rx="1" ry="1" transform="matrix(-42.04583 .79263 -3.58115 -189.96625 20.2 126.3)"/><ellipse fill="#ffdac2" rx="1" ry="1" transform="matrix(24.14228 -188.45994 35.47423 4.54435 185.6 107.9)"/><ellipse fill="#ffe8ce" cx="138" cy="7" rx="190" ry="20"/><ellipse fill="#ffe5cb" cx="90" cy="249" rx="190" ry="25"/><ellipse fill="#520e00" cx="116" cy="168" rx="27" ry="48"/><ellipse fill="#3a0000" rx="1" ry="1" transform="matrix(3.98176 13.51386 -24.16048 7.11871 142.2 70.7)"/><path fill="#733a09" d="M25.4 87.9L99 4.9 35.1 90.5l-18 87.1z"/></g></svg>