<svg xmlns="http://www.w3.org/2000/svg" viewBox="0 0 1000 669"><filter id="b"><feGaussianBlur stdDeviation="40" /></filter><path fill="#181c20" d="M0 0h1000v667H0z"/><g filter="url(#b)" transform="translate(2 2) scale(3.90625)" fill-opacity=".5"><ellipse fill="#fff7cf" rx="1" ry="1" transform="matrix(27.36259 -17.63398 7.59283 11.78176 86.5 60.4)"/><ellipse fill="#525224" rx="1" ry="1" transform="rotate(-92.3 76.7 -49.4) scale(20.17761 47.24689)"/><path d="M-53 174.2l38-239 80 12.6-38 239z"/><ellipse fill="#584e18" rx="1" ry="1" transform="matrix(-16.80483 3.55596 -6.22395 -29.41326 58 93)"/><path fill="#e1dbcc" d="M63 89l41.8-20.6L56.4 62 78 80.3z"/><ellipse fill="#001032" cx="255" cy="96" rx="93" ry="93"/><path fill="#3c3a16" d="M91.1 68.2L80.3 17.5 16.1 128l54.4-72.4z"/><path fill="#ddd8ca" d="M95 29h13v23H95z"/></g></svg>