<svg xmlns="http://www.w3.org/2000/svg" viewBox="0 0 1000 669"><filter id="b"><feGaussianBlur stdDeviation="40" /></filter><path fill="#181c20" d="M0 0h1000v667H0z"/><g filter="url(#b)" transform="translate(2 2) scale(3.90625)" fill-opacity=".5"><ellipse fill="#f7edc3" rx="1" ry="1" transform="matrix(-25.1965 22.74109 -10.04652 -11.13126 88.9 56.7)"/><path fill="#e1dbcb" d="M103.2 66.5l-49-5 18.1 19.2L103 70.6z"/><ellipse fill="#4b4c20" rx="1" ry="1" transform="matrix(-2.0138 -20.67213 46.12036 -4.49288 132 25)"/><ellipse rx="1" ry="1" transform="matrix(-27.11368 -1.80089 13.58854 -204.58523 21.4 24.1)"/><ellipse fill="#584e19" cx="55" cy="93" rx="19" ry="29"/><path fill="#2f2f01" d="M74.3 25.4l14 .2-.6 39-14-.2z"/><path fill="#000d34" d="M271 179l-151 7L253-16z"/><path fill="#eceae6" d="M101 38l13 15-31-1z"/></g></svg>