<svg xmlns="http://www.w3.org/2000/svg" viewBox="0 0 768 768"><filter id="b"><feGaussianBlur stdDeviation="40" /></filter><path fill="#f5f5f7" d="M0 0h768v768H0z"/><g filter="url(#b)" transform="matrix(3 0 0 3 1.5 1.5)" fill-opacity=".5"><ellipse fill="#817e70" rx="1" ry="1" transform="rotate(1.9 -3787.5 4019.8) scale(36.31468 28.77236)"/><ellipse fill="#c9c8c1" rx="1" ry="1" transform="matrix(-24.1125 -29.26475 26.67135 -21.97568 152.5 146.3)"/><path fill="#9c9789" d="M81 123l27 19 28-49z"/><ellipse fill="#fff" cx="190" cy="44" rx="74" ry="74"/><ellipse fill="#9ca6cc" rx="1" ry="1" transform="matrix(-23.32386 -.46409 .52878 -26.57532 131.1 127.1)"/><path fill="#dfcd85" d="M138.5 156.6l39.4-31.6-43.5-35.2 22 37.6z"/><ellipse fill="#fff" rx="1" ry="1" transform="matrix(-34.23315 71.05646 -229.72916 -110.67751 136.1 255)"/><ellipse fill="#fff" rx="1" ry="1" transform="matrix(-47.28993 84.61537 -55.13773 -30.81544 68.3 50)"/></g></svg>