<svg xmlns="http://www.w3.org/2000/svg" viewBox="0 0 2628 2604"><filter id="b"><feGaussianBlur stdDeviation="40" /></filter><path fill="#939a9e" d="M0 0h2628v2597H0z"/><g filter="url(#b)" transform="translate(5.1 5.1) scale(10.26563)" fill-opacity=".5"><ellipse fill="#c3e9ff" rx="1" ry="1" transform="matrix(18.34739 22.2016 -110.53731 91.34794 23 18.8)"/><ellipse fill="#c7edff" rx="1" ry="1" transform="matrix(12.13862 -21.06602 81.48393 46.95252 0 223)"/><ellipse fill="#bbdfff" rx="1" ry="1" transform="matrix(22.3841 -20.8006 149.75834 161.15917 232.9 20.3)"/><ellipse fill="#736d5d" rx="1" ry="1" transform="matrix(66.01888 -50.63806 21.53097 28.0708 74.6 60.7)"/><ellipse fill="#b8dfff" rx="1" ry="1" transform="matrix(119.75454 -131.8197 20.95617 19.0381 255 225)"/><ellipse fill="#6c6c68" rx="1" ry="1" transform="rotate(-55 243.8 29.6) scale(28.53417 86.21694)"/><ellipse fill="#868272" cx="148" cy="62" rx="67" ry="54"/><path fill="#abc8ff" d="M47 254l-53 4-10-152z"/></g></svg>