<svg xmlns="http://www.w3.org/2000/svg" viewBox="0 0 943 657"><filter id="b"><feGaussianBlur stdDeviation="40" /></filter><path fill="#494343" d="M0 0h943v655H0z"/><g filter="url(#b)" transform="translate(1.8 1.8) scale(3.6836)" fill-opacity=".5"><ellipse fill="#fff" rx="1" ry="1" transform="matrix(-14.09629 -41.06125 101.08723 -34.70314 135.2 87.6)"/><ellipse rx="1" ry="1" transform="rotate(-13.2 52.2 -394.2) scale(255 51.99213)"/><path d="M-16 173l269 20 12-100z"/><ellipse fill="#fff1fb" cx="112" cy="92" rx="71" ry="40"/><ellipse cx="254" cy="76" rx="25" ry="255"/><ellipse rx="1" ry="1" transform="matrix(28.90582 -17.16302 12.53277 21.1076 31 152.6)"/><path fill="#ff507e" d="M104.2 89.7l4.6 18.4-161 40.2-4.6-18.4z"/><ellipse rx="1" ry="1" transform="rotate(107 -10.2 35.7) scale(58.19452 34.1942)"/></g></svg>