<svg xmlns="http://www.w3.org/2000/svg" viewBox="0 0 723 1024"><filter id="b"><feGaussianBlur stdDeviation="40" /></filter><path fill="#93872e" d="M0 0h724v1024H0z"/><g filter="url(#b)" transform="matrix(4 0 0 4 2 2)" fill-opacity=".5"><ellipse fill="#000005" rx="1" ry="1" transform="matrix(-10.2525 .63441 -10.73431 -173.47327 180 107)"/><ellipse fill="#000005" rx="1" ry="1" transform="matrix(6.42152 -141.4128 8.3602 .37963 0 101.5)"/><ellipse fill="#c3b042" cx="90" cy="94" rx="80" ry="80"/><ellipse rx="1" ry="1" transform="matrix(-.24052 5.3384 -179.81758 -8.10165 81.8 255)"/><path d="M195.6 9L89.2 4.8-16 3.2 149-16z"/><ellipse fill="#091606" rx="1" ry="1" transform="matrix(-71.67154 -118.34378 16.88581 -10.22641 8.1 255)"/><ellipse fill="#000017" cx="180" cy="51" rx="11" ry="132"/><ellipse fill="#c6aa34" cx="145" cy="188" rx="32" ry="36"/></g></svg>