<svg xmlns="http://www.w3.org/2000/svg" viewBox="0 0 1609 2400"><filter id="b"><feGaussianBlur stdDeviation="12" /></filter><path fill="#4e4a3f" d="M0 0h1612v2400H0z"/><g filter="url(#b)" transform="translate(4.7 4.7) scale(9.375)" fill-opacity=".5"><ellipse fill="#e1ccc4" rx="1" ry="1" transform="matrix(19.24477 -10.2488 19.07102 35.81074 76.3 84.2)"/><path fill="#c0c7d9" d="M101.9 163.2l1.8 107.8-31-113-25.3 113z"/><ellipse fill="#1f1c25" cx="24" cy="246" rx="31" ry="171"/><ellipse fill="#06160c" cx="143" cy="230" rx="40" ry="38"/><path fill="#fffff4" d="M127.8 75.4l3.6 10.4-31.2 10.8-3.6-10.4z"/><path fill="#fffff1" d="M46 32l20 33 4-35z"/><ellipse fill="#736d11" rx="1" ry="1" transform="matrix(-25.57857 .10606 -.4357 -105.07997 149.2 97.5)"/><path fill="#d6b292" d="M105.5 10.8l5.7 8-8.6 15.1-36-19.5z"/></g></svg>