<svg xmlns="http://www.w3.org/2000/svg" viewBox="0 0 1001 1024"><filter id="b"><feGaussianBlur stdDeviation="40" /></filter><path fill="#9b8260" d="M0 0h1004v1024H0z"/><g filter="url(#b)" transform="matrix(4 0 0 4 2 2)" fill-opacity=".5"><ellipse fill="#473f23" cx="197" cy="129" rx="46" ry="88"/><ellipse fill="#2c260c" rx="1" ry="1" transform="matrix(-50.22434 2.34125 -1.47315 -31.6019 123.2 50.4)"/><path fill="#fff" d="M2-4.3l249.9-4.4.2 13L2 8.7z"/><path fill="#f0c9a1" d="M-11 271l277-14-282-65z"/><ellipse fill="#fff" cx="250" cy="52" rx="5" ry="224"/><ellipse fill="#fff" rx="1" ry="1" transform="matrix(1.06777 180.1362 -6.40297 .03795 0 82.8)"/><ellipse fill="#bb9c75" rx="1" ry="1" transform="matrix(11.6093 5.07198 -13.94055 31.90866 172.4 79.3)"/><path fill="#e6c28f" d="M107 196l62-9-121-27z"/></g></svg>