<svg xmlns="http://www.w3.org/2000/svg" viewBox="0 0 2114 2500"><filter id="b"><feGaussianBlur stdDeviation="40" /></filter><path fill="#221b0d" d="M0 0h2119v2500H0z"/><g filter="url(#b)" transform="translate(4.9 4.9) scale(9.76563)" fill-opacity=".5"><ellipse fill="#4a402a" rx="1" ry="1" transform="rotate(122.3 2 109.2) scale(71.4949 58.49834)"/><path fill="#64653a" d="M250.8 52.6L227 156l-45.8-10.5L205 42z"/><ellipse fill="#0b0200" cx="29" cy="29" rx="159" ry="69"/><ellipse rx="1" ry="1" transform="rotate(76.2 -65.2 234.1) scale(94.5637 25.43448)"/><path fill="#9a8d76" d="M61.8 171.5L33 155.6l18.1-15-16.8-4.8z"/><path fill="#72634c" d="M140.9 110.3l-6.5 1.7-9.2 55.7 34.3-38z"/><path d="M59.7 202.2l8 65.6-81.4 10-8-65.6zm58.2-24.2l-45.5 5 21.8 27.7L129 180z"/></g></svg>