<svg xmlns="http://www.w3.org/2000/svg" viewBox="0 0 768 750"><filter id="b"><feGaussianBlur stdDeviation="12" /></filter><path fill="#b2aca5" d="M0 0h768v750H0z"/><g filter="url(#b)" transform="matrix(3 0 0 3 1.5 1.5)" fill-opacity=".5"><ellipse cx="126" cy="121" rx="94" ry="94"/><ellipse fill="#fff" rx="1" ry="1" transform="matrix(-37.15416 .96584 -6.04256 -232.44587 252.1 156.4)"/><path fill="#fff" d="M-53.8 8.5L27.8-.1l26 247.6-81.6 8.6z"/><ellipse fill="#fff" cx="127" cy="238" rx="255" ry="25"/><ellipse fill="#fff" cx="124" cy="9" rx="255" ry="22"/><ellipse fill="#fff" rx="1" ry="1" transform="rotate(-45.5 56.5 -38.4) scale(130.63705 30.44704)"/><ellipse fill="#fff" rx="1" ry="1" transform="rotate(132.3 101 69.2) scale(28.67454 110.19307)"/><ellipse fill="#fff" rx="1" ry="1" transform="matrix(-19.08518 -20.94276 96.36736 -87.8198 196.2 224.2)"/></g></svg>