<svg xmlns="http://www.w3.org/2000/svg" viewBox="0 0 1024 708"><filter id="b"><feGaussianBlur stdDeviation="40" /></filter><path fill="#d5c7c3" d="M0 0h1024v708H0z"/><g filter="url(#b)" transform="matrix(4 0 0 4 2 2)" fill-opacity=".5"><ellipse fill="#c61c00" rx="1" ry="1" transform="matrix(-41.95869 5.59848 -4.0085 -30.04225 160.7 40.7)"/><ellipse fill="#870000" rx="1" ry="1" transform="matrix(9.47112 -8.35213 32.9559 37.37121 53.3 128)"/><path fill="#feffff" d="M271 52l-10 140H19z"/><ellipse fill="#5d6f6d" cx="64" cy="68" rx="46" ry="26"/><ellipse fill="#f9ffff" rx="1" ry="1" transform="matrix(-101.65754 28.36891 -7.65495 -27.43084 63.4 13.6)"/><ellipse fill="#f3ffff" rx="1" ry="1" transform="matrix(-31.2852 19.57981 -57.34047 -91.6203 255 50.5)"/><path fill="#bc3d0e" d="M205 81l-68-57 64-1z"/><ellipse fill="#ebf7fa" rx="1" ry="1" transform="matrix(-38.37415 -63.36325 24.24192 -14.68143 42.2 176)"/></g></svg>