<svg xmlns="http://www.w3.org/2000/svg" viewBox="0 0 702 768"><filter id="b"><feGaussianBlur stdDeviation="40" /></filter><path fill="#a49079" d="M0 0h702v768H0z"/><g filter="url(#b)" transform="matrix(3 0 0 3 1.5 1.5)" fill-opacity=".5"><ellipse fill="#faefd6" cx="93" cy="254" rx="233" ry="20"/><ellipse fill="#583b26" rx="1" ry="1" transform="matrix(4.09807 -69.2035 26.00572 1.54 203.8 72.3)"/><ellipse fill="#f0e7d4" rx="1" ry="1" transform="rotate(-88.6 108 -26) scale(21.16986 41.71519)"/><ellipse fill="#472c21" cx="94" cy="199" rx="26" ry="28"/><ellipse fill="ivory" rx="1" ry="1" transform="matrix(-138.95605 1.21265 -.05255 -6.02131 133.2 .6)"/><path fill="#593724" d="M89 29.6l97.2-12 2.8 22.8-97.2 12z"/><ellipse fill="#5a4136" rx="1" ry="1" transform="matrix(-10.507 1.13097 -4.12178 -38.29243 161.3 209.4)"/><ellipse fill="#fffffa" cx="1" cy="126" rx="5" ry="233"/></g></svg>