<svg xmlns="http://www.w3.org/2000/svg" viewBox="0 0 400 316"><filter id="c"><feGaussianBlur stdDeviation="55" /></filter><path fill="#9a7b7b" d="M0 0h400v315H0z"/><g filter='url(#c)' fill-opacity='.5'><ellipse fill="#f1a29d" fill-opacity=".5" rx="1" ry="1" transform="matrix(-160.02224 76.32036 -44.1049 -92.47552 195.3 135.5)"/><path fill="#30494e" fill-opacity=".5" d="M277.2 400.6L189 279.3 443.1 94.7 531.3 216z"/><path fill="#555344" fill-opacity=".5" d="M194.7 155.9l-17.9-55 83.2-27 17.9 55z"/><path fill="#364240" fill-opacity=".5" d="M38.3 61.7l-62.5-15.6 53.1 234.4z"/><ellipse fill="#3b5358" fill-opacity=".5" rx="1" ry="1" transform="matrix(15.70975 -183.2463 41.99051 3.59986 399.4 39.1)"/><ellipse fill="#44494a" fill-opacity=".5" rx="1" ry="1" transform="matrix(149.10644 -34.42393 3.35718 14.54155 120.5 284)"/><ellipse fill="#557076" fill-opacity=".5" rx="1" ry="1" transform="matrix(14.4404 44.08715 -341.65938 111.90782 67.4 29.1)"/><ellipse fill="#dda4a5" fill-opacity=".5" rx="1" ry="1" transform="rotate(132.9 12 87.6) scale(65.37325 53.41702)"/></g></svg>