<svg xmlns="http://www.w3.org/2000/svg" viewBox="0 0 363 1024"><filter id="b"><feGaussianBlur stdDeviation="40" /></filter><path fill="#6c989e" d="M0 0h360v1024H0z"/><g filter="url(#b)" transform="matrix(4 0 0 4 2 2)" fill-opacity=".5"><ellipse rx="1" ry="1" transform="matrix(33.908 3.80082 -7.58542 67.67125 45.4 152.6)"/><ellipse fill="#fff" rx="1" ry="1" transform="matrix(-.41516 -23.7843 88.98644 -1.55326 53.2 19.1)"/><ellipse fill="#fff" rx="1" ry="1" transform="matrix(86.79106 -19.70562 5.53584 24.38197 65 237.4)"/><ellipse fill="#008295" cx="40" cy="93" rx="48" ry="53"/><ellipse cx="38" cy="179" rx="24" ry="48"/><path fill="#fff" d="M87.4 135.5l48.2 16.6-45 130.4L42.4 266zM0 139l-16 111 56 21z"/><ellipse fill="#fff" cx="33" cy="14" rx="89" ry="28"/></g></svg>