<svg xmlns="http://www.w3.org/2000/svg" viewBox="0 0 891 1024"><filter id="b"><feGaussianBlur stdDeviation="40" /></filter><path fill="#89aeab" d="M0 0h888v1024H0z"/><g filter="url(#b)" transform="matrix(4 0 0 4 2 2)" fill-opacity=".5"><ellipse fill="#120000" rx="1" ry="1" transform="matrix(56.47444 .88717 -.3534 22.4959 104.1 125)"/><path d="M79 182h67v37H79z"/><ellipse fill="#fffaec" cx="108" cy="251" rx="221" ry="16"/><path d="M27 67l38 7-1-41z"/><ellipse fill="#a03d00" rx="1" ry="1" transform="matrix(-4.2253 -12.23412 26.3471 -9.0995 54 168.5)"/><ellipse fill="#c10c00" rx="1" ry="1" transform="rotate(26.4 -119.2 306) scale(7.69956 28.90797)"/><ellipse fill="#cf3c00" rx="1" ry="1" transform="matrix(-10.67078 33.86265 -10.46923 -3.29906 82.5 207.1)"/><ellipse rx="1" ry="1" transform="rotate(114.9 0 89.2) scale(15.6431 27.66701)"/></g></svg>