<svg xmlns="http://www.w3.org/2000/svg" viewBox="0 0 923 1024"><filter id="b"><feGaussianBlur stdDeviation="40" /></filter><path fill="#928f8b" d="M0 0h920v1024H0z"/><g filter="url(#b)" transform="matrix(4 0 0 4 2 2)" fill-opacity=".5"><path fill="#0c0c0c" d="M225-16L105 251h94z"/><ellipse fill="#fff" rx="1" ry="1" transform="matrix(-68.2202 -13.38427 6.24494 -31.8307 117.3 19.4)"/><ellipse fill="#f9f6ef" rx="1" ry="1" transform="matrix(-3.55944 28.98929 -71.55923 -8.78637 88.8 112.4)"/><ellipse fill="#fff" rx="1" ry="1" transform="matrix(20.90852 -139.31669 16.93992 2.54233 229 179.3)"/><ellipse cx="205" cy="38" rx="22" ry="35"/><ellipse fill="#e9e2d9" rx="1" ry="1" transform="rotate(63.4 23.5 215.2) scale(40.66323 9.61872)"/><ellipse fill="#322d2b" rx="1" ry="1" transform="matrix(32.86087 30.10182 -11.03043 12.04145 39.2 48.4)"/><ellipse fill="#3c3838" rx="1" ry="1" transform="matrix(6.64372 82.83969 -14.7006 1.17898 19.7 202)"/></g></svg>