<svg xmlns="http://www.w3.org/2000/svg" viewBox="0 0 2458 2406"><filter id="b"><feGaussianBlur stdDeviation="40" /></filter><path fill="#392f1b" d="M0 0h2458v2400H0z"/><g filter="url(#b)" transform="translate(4.8 4.8) scale(9.60156)" fill-opacity=".5"><ellipse fill="#8e7b51" rx="1" ry="1" transform="matrix(81.7328 -9.54882 4.51152 38.61622 122.3 65.9)"/><ellipse fill="#0f0d08" rx="1" ry="1" transform="matrix(-183.42765 23.73008 -6.26324 -48.41327 69 190.6)"/><ellipse fill="#b4a073" rx="1" ry="1" transform="matrix(15.83307 -27.96613 12.53971 7.09938 128.8 49.4)"/><ellipse fill="#120b03" rx="1" ry="1" transform="matrix(-12.05016 -5.06542 19.36764 -46.0738 118.1 111.6)"/><ellipse fill="#8c815c" cx="179" cy="86" rx="20" ry="24"/><path fill="#835e2f" d="M196.2 263.2l-50 2.6-2.4-47 50-2.6z"/><ellipse fill="#1f1709" rx="1" ry="1" transform="rotate(-68.4 78.2 -48) scale(21.84008 17.48625)"/><path fill="#c0bb92" d="M160 23h12v33h-12z"/></g></svg>