<svg xmlns="http://www.w3.org/2000/svg" viewBox="0 0 1024 810"><filter id="b"><feGaussianBlur stdDeviation="40" /></filter><path fill="#96998c" d="M0 0h1024v808H0z"/><g filter="url(#b)" transform="matrix(4 0 0 4 2 2)" fill-opacity=".5"><ellipse rx="1" ry="1" transform="matrix(-19.57715 -55.59303 75.71506 -26.66314 125.2 103.5)"/><ellipse fill="#f6faea" rx="1" ry="1" transform="matrix(40.07684 10.1746 -54.72907 215.57276 37.7 42.5)"/><ellipse fill="#fffff9" rx="1" ry="1" transform="matrix(19.1153 -52.54683 198.54698 72.22674 182.3 0)"/><ellipse fill="#030000" cx="134" cy="104" rx="61" ry="61"/><ellipse fill="#dfe4d5" rx="1" ry="1" transform="matrix(45.09587 -127.5774 51.14624 18.0791 251.3 135.6)"/><ellipse fill="#d4d7c4" rx="1" ry="1" transform="matrix(-72.91138 18.62175 -2.7235 -10.66357 49.9 104.2)"/><ellipse fill="#cfd4c9" cx="93" cy="195" rx="149" ry="26"/><ellipse fill="#17140a" rx="1" ry="1" transform="matrix(-31.03027 10.96212 -7.01356 -19.85317 99.1 64)"/></g></svg>