<svg xmlns="http://www.w3.org/2000/svg" viewBox="0 0 1024 1018"><filter id="b"><feGaussianBlur stdDeviation="40" /></filter><path fill="#d8d4c9" d="M0 0h1024v1016H0z"/><g filter="url(#b)" transform="matrix(4 0 0 4 2 2)" fill-opacity=".5"><ellipse fill="#65772b" rx="1" ry="1" transform="matrix(21.93487 16.93522 -7.16418 9.2792 60.7 131.8)"/><ellipse fill="#b69570" cx="129" cy="137" rx="24" ry="28"/><ellipse fill="#aba091" rx="1" ry="1" transform="matrix(-12.61164 -16.87814 132.30429 -98.8601 200.5 230.1)"/><ellipse fill="#f1f0f0" rx="1" ry="1" transform="matrix(64.37516 -31.26622 18.36625 37.81493 97.8 68.4)"/><ellipse fill="#f7f8f8" rx="1" ry="1" transform="rotate(91.1 43.9 166.8) scale(57.41975 24.44019)"/><path fill="#b69a6d" d="M128 255l37-17-99-13z"/><ellipse fill="#bbab92" cx="245" cy="124" rx="12" ry="60"/><ellipse fill="#f2f1ef" rx="1" ry="1" transform="matrix(6.07421 -23.21767 50.05369 13.09506 107.8 211.6)"/></g></svg>