<svg xmlns="http://www.w3.org/2000/svg" viewBox="0 0 1024 1018"><filter id="b"><feGaussianBlur stdDeviation="40" /></filter><path fill="#d8d4c9" d="M0 0h1024v1016H0z"/><g filter="url(#b)" transform="matrix(4 0 0 4 2 2)" fill-opacity=".5"><path fill="#71823b" d="M89.6 152l-59.3-9.5 11.4-33.8 38.8 20.6z"/><ellipse fill="#aba091" rx="1" ry="1" transform="rotate(-123.5 171.3 43.7) scale(20.89588 225.14206)"/><path fill="#b39772" d="M101.1 121.9l46-9.8 9.8 46-46 9.8z"/><ellipse fill="#f0efef" rx="1" ry="1" transform="matrix(57.55872 -27.12371 19.8204 42.06049 100.7 72.3)"/><ellipse fill="#f0f3f1" cx="204" cy="124" rx="29" ry="69"/><path fill="#b89b6f" d="M56 222l68 31 40-14z"/><ellipse fill="#efefec" rx="1" ry="1" transform="rotate(-72.8 192.8 31.7) scale(27.87069 57.49238)"/><path fill="#b7a891" d="M236 69h20v110h-20z"/></g></svg>