<svg xmlns="http://www.w3.org/2000/svg" viewBox="0 0 702 1024"><filter id="b"><feGaussianBlur stdDeviation="40" /></filter><path fill="#a9a99e" d="M0 0h700v1024H0z"/><g filter="url(#b)" transform="matrix(4 0 0 4 2 2)" fill-opacity=".5"><ellipse fill="#232320" rx="1" ry="1" transform="matrix(-56.6111 14.3248 -11.76792 -46.50638 64.7 163)"/><ellipse fill="#fff" rx="1" ry="1" transform="rotate(119.2 9.6 23.4) scale(70.81656 43.24392)"/><ellipse fill="#fffffc" cx="147" cy="10" rx="56" ry="56"/><ellipse fill="#fff" cx="174" cy="129" rx="48" ry="38"/><path d="M138.8 60.2l33 20.7-10.6 17-33-20.8z"/><ellipse fill="#686862" cx="84" cy="135" rx="34" ry="78"/><path fill="#4f4f4a" d="M5.8 245.2l85.6-42.4-13 38.4L58.6 253z"/><path fill="#fdfdee" d="M-16 178l41-89 30 10z"/></g></svg>