<svg xmlns="http://www.w3.org/2000/svg" viewBox="0 0 1541 2400"><filter id="b"><feGaussianBlur stdDeviation="40" /></filter><path fill="#4f4032" d="M0 0h1537v2400H0z"/><g filter="url(#b)" transform="translate(4.7 4.7) scale(9.375)" fill-opacity=".5"><ellipse fill="#ebb384" rx="1" ry="1" transform="rotate(98.6 -17 100.4) scale(72.78237 53.95012)"/><ellipse rx="1" ry="1" transform="matrix(-3.69804 -162.95805 19.20122 -.43574 153.6 99.4)"/><ellipse rx="1" ry="1" transform="matrix(18.95608 .51746 -4.4479 162.9393 6.1 112.2)"/><ellipse fill="#c3b28e" rx="1" ry="1" transform="matrix(9.76218 -9.21127 22.18037 23.50694 130.7 174.9)"/><ellipse fill="#19151d" rx="1" ry="1" transform="matrix(93.65985 17.86657 -8.05132 42.20649 58.6 232.8)"/><ellipse rx="1" ry="1" transform="matrix(-10.80444 -22.86557 68.0363 -32.1485 23 0)"/><ellipse cx="153" cy="50" rx="19" ry="147"/><ellipse fill="#b59e7b" cx="32" cy="68" rx="9" ry="39"/></g></svg>