<svg xmlns="http://www.w3.org/2000/svg" viewBox="0 0 1019 1024"><filter id="b"><feGaussianBlur stdDeviation="40" /></filter><path fill="#9c9f9f" d="M0 0h1020v1024H0z"/><g filter="url(#b)" transform="matrix(4 0 0 4 2 2)" fill-opacity=".5"><ellipse fill="#ccd3dc" rx="1" ry="1" transform="rotate(178.8 52.8 120.8) scale(254 18.31388)"/><path fill="#767873" d="M238 98l-24 130-230-40z"/><path fill="#313435" d="M94.6 226l-1.4-11 106.2-13 1.4 11z"/><ellipse fill="#efefec" cx="152" cy="168" rx="27" ry="10"/><ellipse fill="#eff1ec" cx="134" cy="122" rx="36" ry="9"/><ellipse fill="#474a4b" rx="1" ry="1" transform="rotate(-20.7 482.8 -394) scale(32.57336 13.95127)"/><ellipse fill="#c6cbd3" rx="1" ry="1" transform="rotate(-161.9 21.5 103.5) scale(43.53823 26.7941)"/><ellipse fill="#333738" rx="1" ry="1" transform="rotate(121.2 14.1 109.5) scale(27.66986 6.12835)"/></g></svg>