<svg xmlns="http://www.w3.org/2000/svg" viewBox="0 0 564 768"><filter id="b"><feGaussianBlur stdDeviation="40" /></filter><path fill="#28221b" d="M0 0h564v768H0z"/><g filter="url(#b)" transform="matrix(3 0 0 3 1.5 1.5)" fill-opacity=".5"><ellipse fill="#7a6856" cx="98" cy="125" rx="85" ry="85"/><ellipse rx="1" ry="1" transform="matrix(179.32409 -21.53135 4.90586 40.85848 82.5 234.6)"/><ellipse rx="1" ry="1" transform="matrix(-186.94335 4.60257 -.63995 -25.99308 78 22.4)"/><ellipse fill="#190a00" rx="1" ry="1" transform="matrix(10.59893 29.2792 -28.64191 10.36823 94.6 121.5)"/><ellipse fill="#7b6e62" cx="41" cy="122" rx="30" ry="55"/><path d="M78.6 293.7L-59.3 178l36.7-43.7L115.3 250z"/><ellipse rx="1" ry="1" transform="rotate(147.9 83 41.4) scale(33.64531 89.10634)"/><ellipse rx="1" ry="1" transform="rotate(103.2 -7 23) scale(83.6521 24.86789)"/></g></svg>