<svg xmlns="http://www.w3.org/2000/svg" viewBox="0 0 976 1024"><filter id="b"><feGaussianBlur stdDeviation="40" /></filter><path fill="#c69489" d="M0 0h976v1024H0z"/><g filter="url(#b)" transform="matrix(4 0 0 4 2 2)" fill-opacity=".5"><ellipse rx="1" ry="1" transform="rotate(76.5 30.7 131.6) scale(25.32497 54.4381)"/><ellipse fill="#ab0000" rx="1" ry="1" transform="matrix(-52.92407 -28.76494 8.72457 -16.05218 80.4 159.8)"/><ellipse fill="#fcfdeb" rx="1" ry="1" transform="rotate(-127.1 149.4 27.3) scale(50.85534 107.26552)"/><ellipse fill="#fffffc" rx="1" ry="1" transform="rotate(29.3 -342.5 142.2) scale(73.65012 34.75009)"/><path fill="#a40000" d="M7 95l181 26-51 30z"/><path fill="#a30000" d="M0 55l68-2 80-69z"/><ellipse fill="#fff" cy="138" rx="15" ry="243"/><ellipse fill="#fff" rx="1" ry="1" transform="matrix(-14.39496 .05025 -.82655 -236.78725 243 136)"/></g></svg>