<svg xmlns="http://www.w3.org/2000/svg" viewBox="0 0 4096 3130"><filter id="b"><feGaussianBlur stdDeviation="40" /></filter><path fill="#dddbbc" d="M0 0h4096v3120H0z"/><g filter="url(#b)" transform="matrix(16 0 0 16 8 8)" fill-opacity=".5"><ellipse fill="#a3a47c" rx="1" ry="1" transform="matrix(2.10432 -28.66905 81.48472 5.981 137.6 123.3)"/><ellipse fill="#eeeacd" rx="1" ry="1" transform="matrix(218.824 -130.92385 43.8106 73.22431 39.2 38.6)"/><ellipse fill="#91a257" rx="1" ry="1" transform="matrix(-29.00964 -1.97768 .32932 -4.83062 209.7 143.7)"/><path fill="#9c9d72" d="M116 107h35v43h-35z"/><path fill="#cbcaaa" d="M55 95l-28 55 137-15z"/><ellipse fill="#edeacf" rx="1" ry="1" transform="rotate(-79.8 130.3 59.5) scale(27.03029 187.27007)"/><ellipse fill="#fff" cx="255" cy="91" rx="4" ry="161"/><ellipse fill="#7d7e3c" rx="1" ry="1" transform="matrix(21.17074 .8133 -.11247 2.92774 134.3 117)"/></g></svg>