<svg xmlns="http://www.w3.org/2000/svg" viewBox="0 0 2500 1269"><filter id="b"><feGaussianBlur stdDeviation="40" /></filter><path fill="#978788" d="M0 0h2500v1259H0z"/><g filter="url(#b)" transform="translate(4.9 4.9) scale(9.76563)" fill-opacity=".5"><ellipse fill="#eaeac1" rx="1" ry="1" transform="matrix(11.82863 -33.36415 50.09604 17.7606 181.4 42)"/><ellipse fill="#fefed2" cx="75" cy="27" rx="54" ry="20"/><ellipse fill="#4b214b" rx="1" ry="1" transform="matrix(-168.6191 2.48073 -.2109 -14.33528 135 110.3)"/><path fill="#310075" d="M249 99.5L243.4-16 229.7 2.4l1 126.3z"/><ellipse fill="#307" cx="16" cy="53" rx="8" ry="100"/><ellipse fill="#c4c399" rx="1" ry="1" transform="rotate(120.6 30 57.8) scale(50.77891 26.605)"/><ellipse fill="#a19d6f" rx="1" ry="1" transform="matrix(13.8813 -24.73074 42.04588 23.60024 166.2 77.5)"/><path fill="#6e6433" d="M127.8 75l35.4 37.3-79.6.1L151 44.8z"/></g></svg>