<svg xmlns="http://www.w3.org/2000/svg" viewBox="0 0 724 1024"><filter id="b"><feGaussianBlur stdDeviation="40" /></filter><path fill="#a19886" d="M0 0h724v1024H0z"/><g filter="url(#b)" transform="matrix(4 0 0 4 2 2)" fill-opacity=".5"><ellipse fill="#1a0e03" rx="1" ry="1" transform="matrix(69.34911 -25.18539 4.06251 11.1863 100.9 32.8)"/><ellipse rx="1" ry="1" transform="rotate(100.7 19.8 109.5) scale(12.76623 30.28654)"/><ellipse fill="#dddec6" rx="1" ry="1" transform="matrix(36.5033 -76.87578 28.57665 13.5692 58 198.1)"/><path fill="#000008" d="M70 232h89v19H70z"/><ellipse rx="1" ry="1" transform="matrix(-.74962 -9.31692 21.21444 -1.70687 45.9 130)"/><ellipse fill="#f2f6ea" cx="115" cy="73" rx="25" ry="25"/><path fill="#080918" d="M135 207h42v21h-42z"/><ellipse fill="#202209" rx="1" ry="1" transform="matrix(-.69336 -8.61762 21.92695 -1.7642 34.5 221.8)"/></g></svg>