<svg xmlns="http://www.w3.org/2000/svg" viewBox="0 0 678 1024"><filter id="b"><feGaussianBlur stdDeviation="40" /></filter><path fill="#cfc8b8" d="M0 0h676v1024H0z"/><g filter="url(#b)" transform="matrix(4 0 0 4 2 2)" fill-opacity=".5"><ellipse fill="#151605" rx="1" ry="1" transform="matrix(8.3267 -108.21514 27.39654 2.10805 138.3 225.9)"/><path fill="#333526" d="M131 50.4L86.7 98 67 79.6 111.3 32z"/><ellipse fill="#fffff5" cx="30" cy="135" rx="46" ry="168"/><path fill="#595541" d="M116 213L104 97l-25 65z"/><ellipse fill="#fffbe4" rx="1" ry="1" transform="matrix(19.76057 8.24348 -6.27488 15.04162 121.3 212.7)"/><ellipse fill="ivory" cx="114" cy="10" rx="168" ry="33"/><path d="M113.7 226.4l44 2.3-1.4 27-44-2.4z"/><ellipse fill="#fff7e7" rx="1" ry="1" transform="matrix(4.14107 36.34571 -37.7341 4.29926 134.6 80.5)"/></g></svg>