<svg xmlns="http://www.w3.org/2000/svg" viewBox="0 0 1024 812"><filter id="b"><feGaussianBlur stdDeviation="40" /></filter><path fill="#a7988d" d="M0 0h1024v812H0z"/><g filter="url(#b)" transform="matrix(4 0 0 4 2 2)" fill-opacity=".5"><ellipse fill="#47423b" cx="107" cy="111" rx="65" ry="29"/><ellipse fill="#dfcdc1" cx="161" cy="168" rx="193" ry="32"/><ellipse fill="#4b3f31" rx="1" ry="1" transform="matrix(102.43955 -1.21983 .17453 14.65706 130 41.2)"/><ellipse fill="#716458" rx="1" ry="1" transform="matrix(31.6024 -42.32554 25.58082 19.09994 190.2 71.4)"/><ellipse fill="#0c0a05" rx="1" ry="1" transform="rotate(60.2 -71.2 113.3) scale(18.45261 14.9433)"/><path fill="#ccc1b8" d="M98 53l34 67 24-80z"/><ellipse fill="#d5c0b0" rx="1" ry="1" transform="matrix(5.1641 -107.49418 16.8785 .81086 246.5 47)"/><path fill="#d4c5bb" d="M51.5 86.8L157 193.2l-72-54.7-9.5-61.6z"/></g></svg>