<svg xmlns="http://www.w3.org/2000/svg" viewBox="0 0 786 1024"><filter id="b"><feGaussianBlur stdDeviation="40" /></filter><path fill="#6f7179" d="M0 0h784v1024H0z"/><g filter="url(#b)" transform="matrix(4 0 0 4 2 2)" fill-opacity=".5"><ellipse fill="#fff" rx="1" ry="1" transform="matrix(.82426 71.11946 -194.9869 2.25986 128 236.7)"/><ellipse rx="1" ry="1" transform="matrix(-90.29248 7.6335 -5.59756 -66.21048 98 76.4)"/><ellipse fill="#fff" cx="99" cy="2" rx="168" ry="11"/><ellipse fill="#212313" rx="1" ry="1" transform="rotate(-178.4 77.8 106.5) scale(39.76326 20.19298)"/><ellipse fill="#fffffc" rx="1" ry="1" transform="matrix(-6.10576 -40.63685 56.64448 -8.51093 60.2 221.7)"/><ellipse fill="#fff" cx="1" cy="90" rx="9" ry="195"/><ellipse cx="49" cy="51" rx="40" ry="40"/><ellipse fill="#00002d" rx="1" ry="1" transform="matrix(6.39314 -37.92251 32.32412 5.44934 42.3 126.7)"/></g></svg>